<svg id="visual" viewBox="0 0 375 812" width="375" height="812" xmlns="http://www.w3.org/2000/svg" xmlns:xlink="http://www.w3.org/1999/xlink" version="1.1"><path d="M0 147L29 147L29 58L58 58L58 139L87 139L87 188L115 188L115 139L144 139L144 90L173 90L173 58L202 58L202 196L231 196L231 74L260 74L260 82L288 82L288 147L317 147L317 172L346 172L346 115L375 115L375 107L375 0L375 0L346 0L346 0L317 0L317 0L288 0L288 0L260 0L260 0L231 0L231 0L202 0L202 0L173 0L173 0L144 0L144 0L115 0L115 0L87 0L87 0L58 0L58 0L29 0L29 0L0 0Z" fill="#eceeff"></path><path d="M0 301L29 301L29 261L58 261L58 236L87 236L87 253L115 253L115 301L144 301L144 285L173 285L173 228L202 228L202 334L231 334L231 253L260 253L260 163L288 163L288 285L317 285L317 375L346 375L346 350L375 350L375 269L375 105L375 113L346 113L346 170L317 170L317 145L288 145L288 80L260 80L260 72L231 72L231 194L202 194L202 56L173 56L173 88L144 88L144 137L115 137L115 186L87 186L87 137L58 137L58 56L29 56L29 145L0 145Z" fill="#a9aab5"></path><path d="M0 521L29 521L29 578L58 578L58 472L87 472L87 399L115 399L115 488L144 488L144 456L173 456L173 383L202 383L202 504L231 504L231 464L260 464L260 626L288 626L288 667L317 667L317 675L346 675L346 602L375 602L375 545L375 267L375 348L346 348L346 373L317 373L317 283L288 283L288 161L260 161L260 251L231 251L231 332L202 332L202 226L173 226L173 283L144 283L144 299L115 299L115 251L87 251L87 234L58 234L58 259L29 259L29 299L0 299Z" fill="#6b6b71"></path><path d="M0 813L29 813L29 813L58 813L58 813L87 813L87 813L115 813L115 813L144 813L144 813L173 813L173 813L202 813L202 813L231 813L231 813L260 813L260 813L288 813L288 813L317 813L317 813L346 813L346 813L375 813L375 813L375 543L375 600L346 600L346 673L317 673L317 665L288 665L288 624L260 624L260 462L231 462L231 502L202 502L202 381L173 381L173 454L144 454L144 486L115 486L115 397L87 397L87 470L58 470L58 576L29 576L29 519L0 519Z" fill="#323233"></path></svg>