<svg id="visual" viewBox="0 0 375 812" width="375" height="812" xmlns="http://www.w3.org/2000/svg" xmlns:xlink="http://www.w3.org/1999/xlink" version="1.1"><g stroke-width="1" stroke-linejoin="bevel"><path d="M196.7 408L196.7 456.2L230.3 426Z" fill="#2ba955" stroke="#2ba955"></path><path d="M196.7 408L171.7 460.6L196.7 456.2Z" fill="#007b70" stroke="#007b70"></path><path d="M171.7 460.6L193.3 477.2L196.7 456.2Z" fill="#005a63" stroke="#005a63"></path><path d="M196.7 456.2L216.3 478.6L230.3 426Z" fill="#00101c" stroke="#00101c"></path><path d="M193.3 477.2L216.3 478.6L196.7 456.2Z" fill="#033b49" stroke="#033b49"></path><path d="M230.3 426L238.3 373.4L196.7 408Z" fill="#009a64" stroke="#009a64"></path><path d="M280 438.6L272 411L230.3 426Z" fill="#009a64" stroke="#009a64"></path><path d="M230.3 426L272 411L238.3 373.4Z" fill="#006b6d" stroke="#006b6d"></path><path d="M216.3 478.6L280 438.6L230.3 426Z" fill="#052c3a" stroke="#052c3a"></path><path d="M272 411L267.7 382L238.3 373.4Z" fill="#008b6d" stroke="#008b6d"></path><path d="M290.7 420.6L267.7 382L272 411Z" fill="#00101c" stroke="#00101c"></path><path d="M159 354.4L142.7 377.4L196.7 408Z" fill="#2ba955" stroke="#2ba955"></path><path d="M196.7 408L114 411.6L171.7 460.6Z" fill="#061e2b" stroke="#061e2b"></path><path d="M280 438.6L290.7 420.6L272 411Z" fill="#00101c" stroke="#00101c"></path><path d="M238 531.8L257 506.2L216.3 478.6Z" fill="#033b49" stroke="#033b49"></path><path d="M216.3 478.6L257 506.2L280 438.6Z" fill="#00101c" stroke="#00101c"></path><path d="M280 438.6L322.3 447.6L290.7 420.6Z" fill="#008b6d" stroke="#008b6d"></path><path d="M238.3 373.4L159 354.4L196.7 408Z" fill="#004a57" stroke="#004a57"></path><path d="M108 378L114 411.6L142.7 377.4Z" fill="#004a57" stroke="#004a57"></path><path d="M142.7 377.4L114 411.6L196.7 408Z" fill="#005a63" stroke="#005a63"></path><path d="M257 506.2L263.7 506.2L280 438.6Z" fill="#061e2b" stroke="#061e2b"></path><path d="M267.7 382L266 357.4L238.3 373.4Z" fill="#00101c" stroke="#00101c"></path><path d="M238.3 373.4L172.7 319.8L159 354.4Z" fill="#061e2b" stroke="#061e2b"></path><path d="M268 356.8L266 357.4L267.7 382Z" fill="#00101c" stroke="#00101c"></path><path d="M275.7 346.4L268 356.8L267.7 382Z" fill="#008b6d" stroke="#008b6d"></path><path d="M262 294.2L172.7 319.8L238.3 373.4Z" fill="#052c3a" stroke="#052c3a"></path><path d="M171.7 460.6L151.7 518.8L193.3 477.2Z" fill="#033b49" stroke="#033b49"></path><path d="M189.7 544.4L238 531.8L216.3 478.6Z" fill="#005a63" stroke="#005a63"></path><path d="M257 506.2L238 531.8L263.7 506.2Z" fill="#033b49" stroke="#033b49"></path><path d="M127 503.2L151.7 518.8L171.7 460.6Z" fill="#052c3a" stroke="#052c3a"></path><path d="M189.7 544.4L216.3 478.6L193.3 477.2Z" fill="#004a57" stroke="#004a57"></path><path d="M102.3 471.6L127 503.2L171.7 460.6Z" fill="#00101c" stroke="#00101c"></path><path d="M189.7 544.4L237 535.4L238 531.8Z" fill="#008b6d" stroke="#008b6d"></path><path d="M256.7 570.4L300.3 520.8L263.7 506.2Z" fill="#061e2b" stroke="#061e2b"></path><path d="M114 411.6L102.3 471.6L171.7 460.6Z" fill="#008b6d" stroke="#008b6d"></path><path d="M323.3 334.4L275.7 346.4L267.7 382Z" fill="#2ba955" stroke="#2ba955"></path><path d="M268 356.8L275.7 346.4L266 357.4Z" fill="#004a57" stroke="#004a57"></path><path d="M107.3 333.4L108 378L142.7 377.4Z" fill="#006b6d" stroke="#006b6d"></path><path d="M114 411.6L83.3 399L102.3 471.6Z" fill="#052c3a" stroke="#052c3a"></path><path d="M155 544.4L189.7 544.4L151.7 518.8Z" fill="#005a63" stroke="#005a63"></path><path d="M151.7 518.8L189.7 544.4L193.3 477.2Z" fill="#006b6d" stroke="#006b6d"></path><path d="M262 294.2L238.3 373.4L266 357.4Z" fill="#008b6d" stroke="#008b6d"></path><path d="M159 354.4L107.3 333.4L142.7 377.4Z" fill="#033b49" stroke="#033b49"></path><path d="M323.7 498.8L322.3 447.6L280 438.6Z" fill="#009a64" stroke="#009a64"></path><path d="M290.7 420.6L339.3 417L267.7 382Z" fill="#00101c" stroke="#00101c"></path><path d="M323.7 498.8L280 438.6L263.7 506.2Z" fill="#005a63" stroke="#005a63"></path><path d="M102.3 471.6L104.3 494.8L127 503.2Z" fill="#00101c" stroke="#00101c"></path><path d="M126 551.8L155 544.4L151.7 518.8Z" fill="#2ba955" stroke="#2ba955"></path><path d="M126 551.8L151.7 518.8L127 503.2Z" fill="#008b6d" stroke="#008b6d"></path><path d="M104.3 494.8L106.3 509.2L127 503.2Z" fill="#00101c" stroke="#00101c"></path><path d="M70.7 340.4L83.3 399L108 378Z" fill="#009a64" stroke="#009a64"></path><path d="M108 378L83.3 399L114 411.6Z" fill="#2ba955" stroke="#2ba955"></path><path d="M102.3 471.6L27.7 472.2L104.3 494.8Z" fill="#004a57" stroke="#004a57"></path><path d="M104.3 494.8L14.7 516.8L106.3 509.2Z" fill="#009a64" stroke="#009a64"></path><path d="M155 544.4L196.3 560.8L189.7 544.4Z" fill="#005a63" stroke="#005a63"></path><path d="M189.7 544.4L196.3 560.8L237 535.4Z" fill="#006b6d" stroke="#006b6d"></path><path d="M256.7 570.4L238 531.8L237 535.4Z" fill="#00101c" stroke="#00101c"></path><path d="M256.7 570.4L263.7 506.2L238 531.8Z" fill="#006b6d" stroke="#006b6d"></path><path d="M207.3 268.2L173.3 302.8L172.7 319.8Z" fill="#005a63" stroke="#005a63"></path><path d="M172.7 319.8L107.3 333.4L159 354.4Z" fill="#005a63" stroke="#005a63"></path><path d="M375 440L339.3 417L322.3 447.6Z" fill="#005a63" stroke="#005a63"></path><path d="M322.3 447.6L339.3 417L290.7 420.6Z" fill="#006b6d" stroke="#006b6d"></path><path d="M300.3 520.8L323.7 498.8L263.7 506.2Z" fill="#061e2b" stroke="#061e2b"></path><path d="M173.3 302.8L107.3 333.4L172.7 319.8Z" fill="#009a64" stroke="#009a64"></path><path d="M106.3 509.2L126 551.8L127 503.2Z" fill="#009a64" stroke="#009a64"></path><path d="M166.7 594L202.3 590.4L196.3 560.8Z" fill="#033b49" stroke="#033b49"></path><path d="M202.3 590.4L256.7 570.4L196.3 560.8Z" fill="#052c3a" stroke="#052c3a"></path><path d="M196.3 560.8L256.7 570.4L237 535.4Z" fill="#052c3a" stroke="#052c3a"></path><path d="M375 501.2L366.3 481.2L323.7 498.8Z" fill="#004a57" stroke="#004a57"></path><path d="M311.7 311.2L262 294.2L275.7 346.4Z" fill="#009a64" stroke="#009a64"></path><path d="M275.7 346.4L262 294.2L266 357.4Z" fill="#006b6d" stroke="#006b6d"></path><path d="M339.3 417L323.3 334.4L267.7 382Z" fill="#008b6d" stroke="#008b6d"></path><path d="M166.7 594L196.3 560.8L155 544.4Z" fill="#061e2b" stroke="#061e2b"></path><path d="M323.3 334.4L311.7 311.2L275.7 346.4Z" fill="#009a64" stroke="#009a64"></path><path d="M67.3 326.8L70.7 340.4L107.3 333.4Z" fill="#009a64" stroke="#009a64"></path><path d="M107.3 333.4L70.7 340.4L108 378Z" fill="#052c3a" stroke="#052c3a"></path><path d="M83.3 399L27.7 472.2L102.3 471.6Z" fill="#006b6d" stroke="#006b6d"></path><path d="M262 294.2L207.3 268.2L172.7 319.8Z" fill="#033b49" stroke="#033b49"></path><path d="M94 298.8L67.3 326.8L107.3 333.4Z" fill="#008b6d" stroke="#008b6d"></path><path d="M224 234L207.3 268.2L262 294.2Z" fill="#033b49" stroke="#033b49"></path><path d="M126 551.8L166.7 594L155 544.4Z" fill="#005a63" stroke="#005a63"></path><path d="M375 501.2L323.7 498.8L375 507.8Z" fill="#008b6d" stroke="#008b6d"></path><path d="M323.7 498.8L366.3 481.2L322.3 447.6Z" fill="#005a63" stroke="#005a63"></path><path d="M339.3 417L375 349.4L323.3 334.4Z" fill="#061e2b" stroke="#061e2b"></path><path d="M375 462.6L375 440L322.3 447.6Z" fill="#005a63" stroke="#005a63"></path><path d="M366.3 481.2L375 462.6L322.3 447.6Z" fill="#006b6d" stroke="#006b6d"></path><path d="M355.3 308.8L308.7 293.8L311.7 311.2Z" fill="#005a63" stroke="#005a63"></path><path d="M311.7 311.2L308.7 293.8L262 294.2Z" fill="#008b6d" stroke="#008b6d"></path><path d="M355.3 308.8L311.7 311.2L323.3 334.4Z" fill="#052c3a" stroke="#052c3a"></path><path d="M94 298.8L107.3 333.4L111 276.6Z" fill="#00101c" stroke="#00101c"></path><path d="M70.7 340.4L27.7 409L83.3 399Z" fill="#004a57" stroke="#004a57"></path><path d="M111 276.6L107.3 333.4L173.3 302.8Z" fill="#2ba955" stroke="#2ba955"></path><path d="M202.3 590.4L266 595L256.7 570.4Z" fill="#052c3a" stroke="#052c3a"></path><path d="M256.7 570.4L322.7 588L300.3 520.8Z" fill="#007b70" stroke="#007b70"></path><path d="M226 626.6L266 595L202.3 590.4Z" fill="#006b6d" stroke="#006b6d"></path><path d="M207.3 268.2L149.7 265.6L173.3 302.8Z" fill="#007b70" stroke="#007b70"></path><path d="M52.7 334.8L27.7 409L70.7 340.4Z" fill="#004a57" stroke="#004a57"></path><path d="M106.3 509.2L70.3 592.4L126 551.8Z" fill="#052c3a" stroke="#052c3a"></path><path d="M37.7 290.2L52.7 334.8L67.3 326.8Z" fill="#052c3a" stroke="#052c3a"></path><path d="M67.3 326.8L52.7 334.8L70.7 340.4Z" fill="#004a57" stroke="#004a57"></path><path d="M149.7 265.6L111 276.6L173.3 302.8Z" fill="#006b6d" stroke="#006b6d"></path><path d="M94 298.8L72.3 291.2L67.3 326.8Z" fill="#033b49" stroke="#033b49"></path><path d="M27.7 409L27.7 472.2L83.3 399Z" fill="#061e2b" stroke="#061e2b"></path><path d="M126 551.8L136 613L166.7 594Z" fill="#052c3a" stroke="#052c3a"></path><path d="M375 507.8L323.7 498.8L375 541.4Z" fill="#2ba955" stroke="#2ba955"></path><path d="M366.3 481.2L375 501.2L375 462.6Z" fill="#2ba955" stroke="#2ba955"></path><path d="M207.3 268.2L149.7 255.2L149.7 265.6Z" fill="#061e2b" stroke="#061e2b"></path><path d="M149.7 265.6L149.7 255.2L111 276.6Z" fill="#009a64" stroke="#009a64"></path><path d="M375 541.4L323.7 498.8L300.3 520.8Z" fill="#2ba955" stroke="#2ba955"></path><path d="M375 440L375 349.4L339.3 417Z" fill="#008b6d" stroke="#008b6d"></path><path d="M27.7 409L17.7 458.6L27.7 472.2Z" fill="#007b70" stroke="#007b70"></path><path d="M348.3 255.2L308.3 270.6L308.7 293.8Z" fill="#006b6d" stroke="#006b6d"></path><path d="M308.7 293.8L308.3 270.6L262 294.2Z" fill="#033b49" stroke="#033b49"></path><path d="M207.3 268.2L216.3 224.6L149.7 255.2Z" fill="#033b49" stroke="#033b49"></path><path d="M70.3 592.4L136 613L126 551.8Z" fill="#005a63" stroke="#005a63"></path><path d="M218.3 635L226 626.6L202.3 590.4Z" fill="#061e2b" stroke="#061e2b"></path><path d="M96 260.2L72.3 291.2L94 298.8Z" fill="#008b6d" stroke="#008b6d"></path><path d="M96 260.2L94 298.8L111 276.6Z" fill="#005a63" stroke="#005a63"></path><path d="M375 349.4L355.3 308.8L323.3 334.4Z" fill="#009a64" stroke="#009a64"></path><path d="M333.3 611L322.7 588L305.7 643.6Z" fill="#006b6d" stroke="#006b6d"></path><path d="M266 595L322.7 588L256.7 570.4Z" fill="#2ba955" stroke="#2ba955"></path><path d="M218.3 635L202.3 590.4L166.7 594Z" fill="#004a57" stroke="#004a57"></path><path d="M269 238.6L224 234L262 294.2Z" fill="#00101c" stroke="#00101c"></path><path d="M355.3 572.4L375 541.4L300.3 520.8Z" fill="#2ba955" stroke="#2ba955"></path><path d="M207.3 655.2L218.3 635L161.7 657.6Z" fill="#2ba955" stroke="#2ba955"></path><path d="M226 626.6L239.3 640.6L266 595Z" fill="#2ba955" stroke="#2ba955"></path><path d="M308.3 270.6L269 238.6L262 294.2Z" fill="#004a57" stroke="#004a57"></path><path d="M322.7 213.6L269 238.6L308.3 270.6Z" fill="#006b6d" stroke="#006b6d"></path><path d="M110.3 225.6L96 260.2L149.7 255.2Z" fill="#061e2b" stroke="#061e2b"></path><path d="M149.7 255.2L96 260.2L111 276.6Z" fill="#007b70" stroke="#007b70"></path><path d="M375 349.4L375 316.8L355.3 308.8Z" fill="#004a57" stroke="#004a57"></path><path d="M355.3 308.8L348.3 255.2L308.7 293.8Z" fill="#007b70" stroke="#007b70"></path><path d="M322.7 588L355.3 572.4L300.3 520.8Z" fill="#008b6d" stroke="#008b6d"></path><path d="M0 388.4L0 418.6L27.7 409Z" fill="#009a64" stroke="#009a64"></path><path d="M27.7 409L0 418.6L17.7 458.6Z" fill="#061e2b" stroke="#061e2b"></path><path d="M0 388.4L27.7 409L0 387Z" fill="#052c3a" stroke="#052c3a"></path><path d="M232.3 181L216.3 224.6L224 234Z" fill="#008b6d" stroke="#008b6d"></path><path d="M224 234L216.3 224.6L207.3 268.2Z" fill="#007b70" stroke="#007b70"></path><path d="M0 494.2L14.7 516.8L27.7 472.2Z" fill="#005a63" stroke="#005a63"></path><path d="M27.7 472.2L14.7 516.8L104.3 494.8Z" fill="#005a63" stroke="#005a63"></path><path d="M0 494.2L27.7 472.2L17.7 458.6Z" fill="#009a64" stroke="#009a64"></path><path d="M14.7 516.8L70.3 592.4L106.3 509.2Z" fill="#006b6d" stroke="#006b6d"></path><path d="M0 387L27.7 409L52.7 334.8Z" fill="#061e2b" stroke="#061e2b"></path><path d="M0 310.8L0 387L52.7 334.8Z" fill="#005a63" stroke="#005a63"></path><path d="M218.3 635L239.3 640.6L226 626.6Z" fill="#008b6d" stroke="#008b6d"></path><path d="M322.7 588L333.3 611L355.3 572.4Z" fill="#006b6d" stroke="#006b6d"></path><path d="M0 418.6L0 494.2L17.7 458.6Z" fill="#2ba955" stroke="#2ba955"></path><path d="M81.3 644.6L139 636.6L136 613Z" fill="#061e2b" stroke="#061e2b"></path><path d="M136 613L139 636.6L166.7 594Z" fill="#007b70" stroke="#007b70"></path><path d="M218.3 635L207.3 655.2L239.3 640.6Z" fill="#2ba955" stroke="#2ba955"></path><path d="M216.3 224.6L149.7 223L149.7 255.2Z" fill="#00101c" stroke="#00101c"></path><path d="M0 557.4L64.7 598.4L70.3 592.4Z" fill="#008b6d" stroke="#008b6d"></path><path d="M70.3 592.4L81.3 644.6L136 613Z" fill="#005a63" stroke="#005a63"></path><path d="M0 557.4L70.3 592.4L14.7 516.8Z" fill="#2ba955" stroke="#2ba955"></path><path d="M34.7 235.6L37.7 290.2L72.3 291.2Z" fill="#007b70" stroke="#007b70"></path><path d="M72.3 291.2L37.7 290.2L67.3 326.8Z" fill="#004a57" stroke="#004a57"></path><path d="M34.7 235.6L72.3 291.2L96 260.2Z" fill="#033b49" stroke="#033b49"></path><path d="M305.7 643.6L322.7 588L266 595Z" fill="#052c3a" stroke="#052c3a"></path><path d="M355.3 572.4L375 579L375 541.4Z" fill="#008b6d" stroke="#008b6d"></path><path d="M0 494.2L0 510.8L14.7 516.8Z" fill="#052c3a" stroke="#052c3a"></path><path d="M161.7 657.6L218.3 635L166.7 594Z" fill="#00101c" stroke="#00101c"></path><path d="M305.7 643.6L338.3 614.6L333.3 611Z" fill="#00101c" stroke="#00101c"></path><path d="M338.3 614.6L375 579L355.3 572.4Z" fill="#2ba955" stroke="#2ba955"></path><path d="M305.7 643.6L266 595L239.3 640.6Z" fill="#006b6d" stroke="#006b6d"></path><path d="M333.3 611L338.3 614.6L355.3 572.4Z" fill="#005a63" stroke="#005a63"></path><path d="M149.7 223L110.3 225.6L149.7 255.2Z" fill="#061e2b" stroke="#061e2b"></path><path d="M375 278.2L348.3 255.2L355.3 308.8Z" fill="#00101c" stroke="#00101c"></path><path d="M232.3 181L182.3 192.4L216.3 224.6Z" fill="#00101c" stroke="#00101c"></path><path d="M110.3 225.6L93 234L96 260.2Z" fill="#061e2b" stroke="#061e2b"></path><path d="M375 316.8L375 278.2L355.3 308.8Z" fill="#2ba955" stroke="#2ba955"></path><path d="M139 636.6L161.7 657.6L166.7 594Z" fill="#005a63" stroke="#005a63"></path><path d="M159 667.2L161.7 657.6L139 636.6Z" fill="#2ba955" stroke="#2ba955"></path><path d="M248 697.2L305.7 643.6L239.3 640.6Z" fill="#033b49" stroke="#033b49"></path><path d="M0 272.2L0 310.8L37.7 290.2Z" fill="#004a57" stroke="#004a57"></path><path d="M37.7 290.2L0 310.8L52.7 334.8Z" fill="#033b49" stroke="#033b49"></path><path d="M161.7 657.6L159 667.2L207.3 655.2Z" fill="#033b49" stroke="#033b49"></path><path d="M207.3 655.2L248 697.2L239.3 640.6Z" fill="#2ba955" stroke="#2ba955"></path><path d="M116.3 713.2L159 667.2L139 636.6Z" fill="#2ba955" stroke="#2ba955"></path><path d="M0 510.8L0 557.4L14.7 516.8Z" fill="#004a57" stroke="#004a57"></path><path d="M64.7 598.4L81.3 644.6L70.3 592.4Z" fill="#033b49" stroke="#033b49"></path><path d="M232.3 181L224 234L269 238.6Z" fill="#061e2b" stroke="#061e2b"></path><path d="M216.3 224.6L182.3 192.4L149.7 223Z" fill="#033b49" stroke="#033b49"></path><path d="M149.7 223L110 190.4L110.3 225.6Z" fill="#009a64" stroke="#009a64"></path><path d="M0 557.4L51.7 618L64.7 598.4Z" fill="#008b6d" stroke="#008b6d"></path><path d="M51.7 618L81.3 644.6L64.7 598.4Z" fill="#008b6d" stroke="#008b6d"></path><path d="M375 248.6L322.7 213.6L348.3 255.2Z" fill="#033b49" stroke="#033b49"></path><path d="M348.3 255.2L322.7 213.6L308.3 270.6Z" fill="#061e2b" stroke="#061e2b"></path><path d="M375 278.2L375 248.6L348.3 255.2Z" fill="#007b70" stroke="#007b70"></path><path d="M305.3 200L232.3 181L269 238.6Z" fill="#005a63" stroke="#005a63"></path><path d="M322.7 213.6L305.3 200L269 238.6Z" fill="#006b6d" stroke="#006b6d"></path><path d="M303.7 180L305.3 200L315.3 179.4Z" fill="#006b6d" stroke="#006b6d"></path><path d="M49.3 636L51.7 633.6L51.7 618Z" fill="#008b6d" stroke="#008b6d"></path><path d="M51.7 618L51.7 633.6L81.3 644.6Z" fill="#008b6d" stroke="#008b6d"></path><path d="M0 631L49.3 636L51.7 618Z" fill="#00101c" stroke="#00101c"></path><path d="M51.7 633.6L49.3 636L81.3 644.6Z" fill="#033b49" stroke="#033b49"></path><path d="M221 706.8L207.3 655.2L167.7 713.2Z" fill="#008b6d" stroke="#008b6d"></path><path d="M110.3 225.6L103.3 192L93 234Z" fill="#007b70" stroke="#007b70"></path><path d="M0 270.6L0 272.2L37.7 290.2Z" fill="#007b70" stroke="#007b70"></path><path d="M134.7 165.4L110 190.4L149.7 223Z" fill="#2ba955" stroke="#2ba955"></path><path d="M134.7 165.4L149.7 223L182.3 192.4Z" fill="#009a64" stroke="#009a64"></path><path d="M34.7 235.6L96 260.2L93 234Z" fill="#006b6d" stroke="#006b6d"></path><path d="M103.3 192L34.7 235.6L93 234Z" fill="#009a64" stroke="#009a64"></path><path d="M110 190.4L103.3 192L110.3 225.6Z" fill="#061e2b" stroke="#061e2b"></path><path d="M34.7 235.6L0 270.6L37.7 290.2Z" fill="#006b6d" stroke="#006b6d"></path><path d="M239.3 114.8L224 167.4L232.3 181Z" fill="#009a64" stroke="#009a64"></path><path d="M232.3 181L224 167.4L182.3 192.4Z" fill="#052c3a" stroke="#052c3a"></path><path d="M221 706.8L248 697.2L207.3 655.2Z" fill="#052c3a" stroke="#052c3a"></path><path d="M305.7 643.6L375 666.6L338.3 614.6Z" fill="#006b6d" stroke="#006b6d"></path><path d="M207.3 655.2L159 667.2L167.7 713.2Z" fill="#00101c" stroke="#00101c"></path><path d="M315.3 179.4L305.3 200L320.7 181.4Z" fill="#004a57" stroke="#004a57"></path><path d="M305.3 200L303.7 180L232.3 181Z" fill="#007b70" stroke="#007b70"></path><path d="M167.7 713.2L159 667.2L116.3 713.2Z" fill="#061e2b" stroke="#061e2b"></path><path d="M320.7 181.4L305.3 200L322.7 213.6Z" fill="#009a64" stroke="#009a64"></path><path d="M274 105.8L239.3 114.8L232.3 181Z" fill="#033b49" stroke="#033b49"></path><path d="M375 186L320.7 181.4L322.7 213.6Z" fill="#006b6d" stroke="#006b6d"></path><path d="M103.3 192L11.7 178L34.7 235.6Z" fill="#00101c" stroke="#00101c"></path><path d="M110 190.4L101.3 158.4L103.3 192Z" fill="#008b6d" stroke="#008b6d"></path><path d="M190.7 91.8L134.7 165.4L182.3 192.4Z" fill="#009a64" stroke="#009a64"></path><path d="M116.3 713.2L139 636.6L81.3 644.6Z" fill="#00101c" stroke="#00101c"></path><path d="M285.7 711.2L299.3 699.8L248 697.2Z" fill="#033b49" stroke="#033b49"></path><path d="M248 697.2L299.3 699.8L305.7 643.6Z" fill="#061e2b" stroke="#061e2b"></path><path d="M338.3 614.6L375 666.6L375 579Z" fill="#009a64" stroke="#009a64"></path><path d="M285.7 711.2L248 697.2L258.7 726.8Z" fill="#061e2b" stroke="#061e2b"></path><path d="M0 557.4L0 631L51.7 618Z" fill="#033b49" stroke="#033b49"></path><path d="M41.7 696.2L116.3 713.2L81.3 644.6Z" fill="#004a57" stroke="#004a57"></path><path d="M299.3 699.8L375 666.6L305.7 643.6Z" fill="#009a64" stroke="#009a64"></path><path d="M258.7 726.8L248 697.2L221 706.8Z" fill="#008b6d" stroke="#008b6d"></path><path d="M299.3 699.8L375 702.2L375 666.6Z" fill="#008b6d" stroke="#008b6d"></path><path d="M0 631L0 638.6L49.3 636Z" fill="#052c3a" stroke="#052c3a"></path><path d="M107.3 134.8L101.3 158.4L134.7 165.4Z" fill="#2ba955" stroke="#2ba955"></path><path d="M134.7 165.4L101.3 158.4L110 190.4Z" fill="#009a64" stroke="#009a64"></path><path d="M34.7 235.6L0 173L0 270.6Z" fill="#00101c" stroke="#00101c"></path><path d="M41.7 696.2L81.3 644.6L49.3 636Z" fill="#2ba955" stroke="#2ba955"></path><path d="M375 248.6L375 186L322.7 213.6Z" fill="#2ba955" stroke="#2ba955"></path><path d="M320.7 181.4L322.7 142.8L315.3 179.4Z" fill="#008b6d" stroke="#008b6d"></path><path d="M315.3 179.4L322.7 142.8L303.7 180Z" fill="#2ba955" stroke="#2ba955"></path><path d="M192.7 756.8L258.7 726.8L221 706.8Z" fill="#2ba955" stroke="#2ba955"></path><path d="M358.3 723.2L375 702.2L299.3 699.8Z" fill="#005a63" stroke="#005a63"></path><path d="M178.3 738.8L221 706.8L167.7 713.2Z" fill="#009a64" stroke="#009a64"></path><path d="M150 759.8L178.3 738.8L167.7 713.2Z" fill="#009a64" stroke="#009a64"></path><path d="M0 676.2L41.7 696.2L49.3 636Z" fill="#005a63" stroke="#005a63"></path><path d="M150 759.8L192.7 756.8L178.3 738.8Z" fill="#052c3a" stroke="#052c3a"></path><path d="M375 160.4L322.7 142.8L320.7 181.4Z" fill="#052c3a" stroke="#052c3a"></path><path d="M119 105.2L107.3 134.8L134.7 165.4Z" fill="#005a63" stroke="#005a63"></path><path d="M190.7 91.8L182.3 192.4L224 167.4Z" fill="#005a63" stroke="#005a63"></path><path d="M101.3 158.4L11.7 178L103.3 192Z" fill="#033b49" stroke="#033b49"></path><path d="M358.3 723.2L299.3 699.8L342.3 770.4Z" fill="#007b70" stroke="#007b70"></path><path d="M0 638.6L0 676.2L49.3 636Z" fill="#005a63" stroke="#005a63"></path><path d="M274 105.8L232.3 181L303.7 180Z" fill="#005a63" stroke="#005a63"></path><path d="M23.7 138.4L11.7 178L101.3 158.4Z" fill="#006b6d" stroke="#006b6d"></path><path d="M375 186L375 160.4L320.7 181.4Z" fill="#004a57" stroke="#004a57"></path><path d="M150 759.8L167.7 713.2L116.3 713.2Z" fill="#008b6d" stroke="#008b6d"></path><path d="M178.3 738.8L192.7 756.8L221 706.8Z" fill="#005a63" stroke="#005a63"></path><path d="M342.3 770.4L299.3 699.8L285.7 711.2Z" fill="#033b49" stroke="#033b49"></path><path d="M265.7 773.4L285.7 711.2L258.7 726.8Z" fill="#2ba955" stroke="#2ba955"></path><path d="M0 145.8L0 173L11.7 178Z" fill="#052c3a" stroke="#052c3a"></path><path d="M11.7 178L0 173L34.7 235.6Z" fill="#00101c" stroke="#00101c"></path><path d="M130 782.4L150 759.8L116.3 713.2Z" fill="#008b6d" stroke="#008b6d"></path><path d="M71.7 748.8L116.3 713.2L41.7 696.2Z" fill="#004a57" stroke="#004a57"></path><path d="M315.7 69.2L274 105.8L322.7 142.8Z" fill="#033b49" stroke="#033b49"></path><path d="M322.7 142.8L274 105.8L303.7 180Z" fill="#004a57" stroke="#004a57"></path><path d="M152.7 89.2L119 105.2L134.7 165.4Z" fill="#2ba955" stroke="#2ba955"></path><path d="M190.7 91.8L224 167.4L239.3 114.8Z" fill="#052c3a" stroke="#052c3a"></path><path d="M41.7 125.8L23.7 138.4L101.3 158.4Z" fill="#2ba955" stroke="#2ba955"></path><path d="M228 61.2L190.7 91.8L239.3 114.8Z" fill="#009a64" stroke="#009a64"></path><path d="M69.3 760.8L71.7 748.8L0 752.4Z" fill="#007b70" stroke="#007b70"></path><path d="M41.7 125.8L101.3 158.4L107.3 134.8Z" fill="#2ba955" stroke="#2ba955"></path><path d="M223 783.4L258.7 726.8L192.7 756.8Z" fill="#007b70" stroke="#007b70"></path><path d="M223 783.4L265.7 773.4L258.7 726.8Z" fill="#052c3a" stroke="#052c3a"></path><path d="M190.7 91.8L152.7 89.2L134.7 165.4Z" fill="#061e2b" stroke="#061e2b"></path><path d="M48.3 115.2L41.7 125.8L107.3 134.8Z" fill="#033b49" stroke="#033b49"></path><path d="M48.3 115.2L107.3 134.8L63.7 85.2Z" fill="#008b6d" stroke="#008b6d"></path><path d="M183.3 796.4L192.7 756.8L150 759.8Z" fill="#006b6d" stroke="#006b6d"></path><path d="M183.3 796.4L223 783.4L192.7 756.8Z" fill="#004a57" stroke="#004a57"></path><path d="M375 160.4L365.3 118.8L322.7 142.8Z" fill="#008b6d" stroke="#008b6d"></path><path d="M274 105.8L228 61.2L239.3 114.8Z" fill="#006b6d" stroke="#006b6d"></path><path d="M0 135.4L0 145.8L23.7 138.4Z" fill="#008b6d" stroke="#008b6d"></path><path d="M23.7 138.4L0 145.8L11.7 178Z" fill="#005a63" stroke="#005a63"></path><path d="M375 741.8L375 741.4L358.3 723.2Z" fill="#00101c" stroke="#00101c"></path><path d="M358.3 723.2L375 741.4L375 702.2Z" fill="#2ba955" stroke="#2ba955"></path><path d="M342.3 770.4L375 741.8L358.3 723.2Z" fill="#00101c" stroke="#00101c"></path><path d="M110 90.8L107.3 134.8L119 105.2Z" fill="#004a57" stroke="#004a57"></path><path d="M0 96.2L0 135.4L23.7 138.4Z" fill="#004a57" stroke="#004a57"></path><path d="M152.7 89.2L110 90.8L119 105.2Z" fill="#006b6d" stroke="#006b6d"></path><path d="M0 752.4L71.7 748.8L41.7 696.2Z" fill="#061e2b" stroke="#061e2b"></path><path d="M71.7 748.8L130 782.4L116.3 713.2Z" fill="#006b6d" stroke="#006b6d"></path><path d="M69.3 760.8L130 782.4L71.7 748.8Z" fill="#004a57" stroke="#004a57"></path><path d="M0 96.2L23.7 138.4L41.7 125.8Z" fill="#005a63" stroke="#005a63"></path><path d="M307.7 812L342.3 770.4L265.7 773.4Z" fill="#005a63" stroke="#005a63"></path><path d="M265.7 773.4L342.3 770.4L285.7 711.2Z" fill="#009a64" stroke="#009a64"></path><path d="M149.7 795.4L183.3 796.4L150 759.8Z" fill="#2ba955" stroke="#2ba955"></path><path d="M223 783.4L241.3 812L265.7 773.4Z" fill="#008b6d" stroke="#008b6d"></path><path d="M107 812L149.7 795.4L130 782.4Z" fill="#004a57" stroke="#004a57"></path><path d="M130 782.4L149.7 795.4L150 759.8Z" fill="#061e2b" stroke="#061e2b"></path><path d="M190.7 91.8L156 57.6L152.7 89.2Z" fill="#008b6d" stroke="#008b6d"></path><path d="M152.7 89.2L156 57.6L110 90.8Z" fill="#00101c" stroke="#00101c"></path><path d="M315.7 69.2L228 61.2L274 105.8Z" fill="#033b49" stroke="#033b49"></path><path d="M375 160.4L375 99.8L365.3 118.8Z" fill="#004a57" stroke="#004a57"></path><path d="M365.3 118.8L315.7 69.2L322.7 142.8Z" fill="#004a57" stroke="#004a57"></path><path d="M110 90.8L63.7 85.2L107.3 134.8Z" fill="#00101c" stroke="#00101c"></path><path d="M48.3 115.2L0 96.2L41.7 125.8Z" fill="#061e2b" stroke="#061e2b"></path><path d="M74.3 62.6L63.7 85.2L110 90.8Z" fill="#2ba955" stroke="#2ba955"></path><path d="M195.3 43.6L205.3 55.2L223 6.6Z" fill="#008b6d" stroke="#008b6d"></path><path d="M228 61.2L205.3 55.2L190.7 91.8Z" fill="#009a64" stroke="#009a64"></path><path d="M205.3 55.2L156 57.6L190.7 91.8Z" fill="#00101c" stroke="#00101c"></path><path d="M347.3 63.2L315.7 69.2L365.3 118.8Z" fill="#009a64" stroke="#009a64"></path><path d="M53.3 812L74.3 788.4L69.3 760.8Z" fill="#2ba955" stroke="#2ba955"></path><path d="M69.3 760.8L74.3 788.4L130 782.4Z" fill="#061e2b" stroke="#061e2b"></path><path d="M0 676.2L0 752.4L41.7 696.2Z" fill="#061e2b" stroke="#061e2b"></path><path d="M107 812L175.7 812L149.7 795.4Z" fill="#061e2b" stroke="#061e2b"></path><path d="M149.7 795.4L175.7 812L183.3 796.4Z" fill="#00101c" stroke="#00101c"></path><path d="M183.3 796.4L241.3 812L223 783.4Z" fill="#061e2b" stroke="#061e2b"></path><path d="M175.7 812L241.3 812L183.3 796.4Z" fill="#008b6d" stroke="#008b6d"></path><path d="M241.3 812L268 812L265.7 773.4Z" fill="#008b6d" stroke="#008b6d"></path><path d="M181.7 26.6L195.3 43.6L198.3 0Z" fill="#007b70" stroke="#007b70"></path><path d="M205.3 55.2L195.3 43.6L156 57.6Z" fill="#005a63" stroke="#005a63"></path><path d="M156 57.6L74.3 62.6L110 90.8Z" fill="#005a63" stroke="#005a63"></path><path d="M53.3 812L71.7 798.4L74.3 788.4Z" fill="#052c3a" stroke="#052c3a"></path><path d="M74.3 788.4L107 812L130 782.4Z" fill="#033b49" stroke="#033b49"></path><path d="M0 752.4L0 764.8L69.3 760.8Z" fill="#006b6d" stroke="#006b6d"></path><path d="M56.7 43.6L74.3 62.6L95.3 0Z" fill="#004a57" stroke="#004a57"></path><path d="M63.7 85.2L0 96.2L48.3 115.2Z" fill="#2ba955" stroke="#2ba955"></path><path d="M71.7 798.4L107 812L74.3 788.4Z" fill="#061e2b" stroke="#061e2b"></path><path d="M375 99.8L347.3 63.2L365.3 118.8Z" fill="#008b6d" stroke="#008b6d"></path><path d="M223 6.6L205.3 55.2L228 61.2Z" fill="#033b49" stroke="#033b49"></path><path d="M268 812L307.7 812L265.7 773.4Z" fill="#006b6d" stroke="#006b6d"></path><path d="M342.3 770.4L375 812L375 741.8Z" fill="#008b6d" stroke="#008b6d"></path><path d="M0 45.6L0 96.2L63.7 85.2Z" fill="#004a57" stroke="#004a57"></path><path d="M375 77.2L347.3 63.2L375 99.8Z" fill="#00101c" stroke="#00101c"></path><path d="M307.7 812L332.3 812L342.3 770.4Z" fill="#061e2b" stroke="#061e2b"></path><path d="M263.7 15.6L228 61.2L315.7 69.2Z" fill="#006b6d" stroke="#006b6d"></path><path d="M195.3 43.6L181.7 26.6L156 57.6Z" fill="#052c3a" stroke="#052c3a"></path><path d="M0 764.8L53.3 812L69.3 760.8Z" fill="#007b70" stroke="#007b70"></path><path d="M71.7 798.4L53.3 812L107 812Z" fill="#006b6d" stroke="#006b6d"></path><path d="M114 0L74.3 62.6L156 57.6Z" fill="#004a57" stroke="#004a57"></path><path d="M74.3 62.6L56.7 43.6L63.7 85.2Z" fill="#2ba955" stroke="#2ba955"></path><path d="M332.3 812L375 812L342.3 770.4Z" fill="#006b6d" stroke="#006b6d"></path><path d="M375 7.6L332.3 32.6L347.3 63.2Z" fill="#00101c" stroke="#00101c"></path><path d="M347.3 63.2L332.3 32.6L315.7 69.2Z" fill="#004a57" stroke="#004a57"></path><path d="M332.3 32.6L263.7 15.6L315.7 69.2Z" fill="#2ba955" stroke="#2ba955"></path><path d="M263.7 15.6L223 6.6L228 61.2Z" fill="#007b70" stroke="#007b70"></path><path d="M181.7 26.6L142.7 0L156 57.6Z" fill="#052c3a" stroke="#052c3a"></path><path d="M0 764.8L9.7 812L53.3 812Z" fill="#008b6d" stroke="#008b6d"></path><path d="M0 764.8L0 812L9.7 812Z" fill="#052c3a" stroke="#052c3a"></path><path d="M217 0L198.3 0L223 6.6Z" fill="#005a63" stroke="#005a63"></path><path d="M223 6.6L198.3 0L195.3 43.6Z" fill="#00101c" stroke="#00101c"></path><path d="M278.7 0L217 0L223 6.6Z" fill="#00101c" stroke="#00101c"></path><path d="M278.7 0L223 6.6L263.7 15.6Z" fill="#033b49" stroke="#033b49"></path><path d="M198.3 0L142.7 0L181.7 26.6Z" fill="#008b6d" stroke="#008b6d"></path><path d="M53.7 0L0 45.6L56.7 43.6Z" fill="#052c3a" stroke="#052c3a"></path><path d="M56.7 43.6L0 45.6L63.7 85.2Z" fill="#005a63" stroke="#005a63"></path><path d="M313.3 0L278.7 0L263.7 15.6Z" fill="#006b6d" stroke="#006b6d"></path><path d="M142.7 0L114 0L156 57.6Z" fill="#008b6d" stroke="#008b6d"></path><path d="M375 7.6L313.3 0L332.3 32.6Z" fill="#033b49" stroke="#033b49"></path><path d="M332.3 32.6L313.3 0L263.7 15.6Z" fill="#007b70" stroke="#007b70"></path><path d="M114 0L95.3 0L74.3 62.6Z" fill="#009a64" stroke="#009a64"></path><path d="M375 77.2L375 7.6L347.3 63.2Z" fill="#006b6d" stroke="#006b6d"></path><path d="M95.3 0L53.7 0L56.7 43.6Z" fill="#004a57" stroke="#004a57"></path><path d="M375 7.6L375 0L313.3 0Z" fill="#004a57" stroke="#004a57"></path><path d="M53.7 0L0 0L0 45.6Z" fill="#061e2b" stroke="#061e2b"></path></g></svg>